HIERARCHY
ROOT Hips
{
	OFFSET 0.000000 0.000000 0.000000
	CHANNELS 6 Xposition Yposition Zposition Xrotation Yrotation Zrotation
	JOINT LeftUpLeg_virtual
	{
		OFFSET 0.000000 0.000000 0.000000
		CHANNELS 3 Xrotation Yrotation Zrotation
		JOINT LeftUpLeg
		{
			OFFSET 15.427100 -6.655098 0.678600
			CHANNELS 3 Xrotation Yrotation Zrotation
			JOINT LeftLeg
			{
				OFFSET 4.081073 -39.591068 13.024000
				CHANNELS 3 Xrotation Yrotation Zrotation
				JOINT LeftFoot
				{
					OFFSET -4.081074 -37.707932 -15.979700
					CHANNELS 3 Xrotation Yrotation Zrotation
					JOINT LeftToeBase
					{
						OFFSET 5.346399 -15.068900 20.645000
						CHANNELS 3 Xrotation Yrotation Zrotation
						JOINT LeftToe_End
						{
							OFFSET 2.754700 0.931300 11.300900
							CHANNELS 3 Xrotation Yrotation Zrotation
							End Site
							{
								OFFSET 0 0 0
							}
						}
					}
				}
			}
		}
	}
	JOINT RightUpLeg_virtual
	{
		OFFSET 0.000000 0.000000 0.000000
		CHANNELS 3 Xrotation Yrotation Zrotation
		JOINT RightUpLeg
		{
			OFFSET -15.569500 -6.655098 0.678600
			CHANNELS 3 Xrotation Yrotation Zrotation
			JOINT RightLeg
			{
				OFFSET -4.081825 -39.591045 13.023800
				CHANNELS 3 Xrotation Yrotation Zrotation
				JOINT RightFoot
				{
					OFFSET 4.081824 -37.707954 -15.979600
					CHANNELS 3 Xrotation Yrotation Zrotation
					JOINT RightToeBase
					{
						OFFSET -5.346400 -15.068900 20.645000
						CHANNELS 3 Xrotation Yrotation Zrotation
						JOINT RightToe_End
						{
							OFFSET -2.754700 0.931300 11.300900
							CHANNELS 3 Xrotation Yrotation Zrotation
							End Site
							{
								OFFSET 0 0 0
							}
						}
					}
				}
			}
		}
	}
	JOINT Spine_virtual
	{
		OFFSET 0.000000 0.000000 0.000000
		CHANNELS 3 Xrotation Yrotation Zrotation
		JOINT Spine
		{
			OFFSET -0.279200 12.230698 -2.892100
			CHANNELS 3 Xrotation Yrotation Zrotation
			JOINT Spine1
			{
				OFFSET -0.232667 10.192268 -1.242267
				CHANNELS 3 Xrotation Yrotation Zrotation
				JOINT Spine1_split
				{
					OFFSET -0.232667 10.192268 -1.242267
					CHANNELS 3 Xrotation Yrotation Zrotation
					JOINT Spine2
					{
						OFFSET -0.232667 10.192268 -1.242267
						CHANNELS 3 Xrotation Yrotation Zrotation
						JOINT Neck_virtual
						{
							OFFSET 0.000000 0.000000 0.000000
							CHANNELS 3 Xrotation Yrotation Zrotation
							JOINT Neck
							{
								OFFSET -0.418800 17.814194 8.416900
								CHANNELS 3 Xrotation Yrotation Zrotation
								JOINT Head
								{
									OFFSET 0.000000 7.031097 3.806800
									CHANNELS 3 Xrotation Yrotation Zrotation
									JOINT HeadTop_End
									{
										OFFSET 0.000000 24.646606 12.978600
										CHANNELS 3 Xrotation Yrotation Zrotation
										End Site
										{
											OFFSET 0 0 0
										}
									}
								}
							}
						}
						JOINT LeftShoulder_virtual
						{
							OFFSET 0.000000 0.000000 0.000000
							CHANNELS 3 Xrotation Yrotation Zrotation
							JOINT LeftShoulder
							{
								OFFSET 8.476499 7.247704 -3.868750
								CHANNELS 3 Xrotation Yrotation Zrotation
								JOINT LeftShoulder_split
								{
									OFFSET 8.476499 7.247704 -3.868750
									CHANNELS 3 Xrotation Yrotation Zrotation
									JOINT LeftArm
									{
										OFFSET 9.308998 -2.777710 0.208600
										CHANNELS 3 Xrotation Yrotation Zrotation
										JOINT LeftForeArm
										{
											OFFSET 29.972298 0.000000 0.000000
											CHANNELS 3 Xrotation Yrotation Zrotation
											JOINT LeftHand
											{
												OFFSET 26.026505 0.000000 0.000000
												CHANNELS 3 Xrotation Yrotation Zrotation
												End Site
												{
													OFFSET 0 0 0
												}
											}
										}
									}
								}
							}
						}
						JOINT RightShoulder_virtual
						{
							OFFSET 0.000000 0.000000 0.000000
							CHANNELS 3 Xrotation Yrotation Zrotation
							JOINT RightShoulder
							{
								OFFSET -7.570500 7.247704 -3.868750
								CHANNELS 3 Xrotation Yrotation Zrotation
								JOINT RightShoulder_split
								{
									OFFSET -7.570500 7.247704 -3.868750
									CHANNELS 3 Xrotation Yrotation Zrotation
									JOINT RightArm
									{
										OFFSET -9.308998 -2.777710 0.208500
										CHANNELS 3 Xrotation Yrotation Zrotation
										JOINT RightForeArm
										{
											OFFSET -29.972300 0.000000 0.000000
											CHANNELS 3 Xrotation Yrotation Zrotation
											JOINT RightHand
											{
												OFFSET -26.026505 0.000000 0.000000
												CHANNELS 3 Xrotation Yrotation Zrotation
												End Site
												{
													OFFSET 0 0 0
												}
											}
										}
									}
								}
							}
						}
					}
				}
			}
		}
	}
}
MOTION
Frames: 10
Frame Time: 0.03333333
4.416449 70.936615 14.445164 0.000000 0.000000 0.000000 -0.616889 -36.260808 -3.371824 -43.832305 -1.624879 25.788928 60.377622 1.271265 -1.372325 -14.975485 -9.395444 -11.922517 -3.350516 -0.423989 1.571852 0.000000 0.000000 0.000000 -1.275661 -32.441121 -3.362239 -4.241089 -16.432503 -31.295794 48.125697 1.297779 -6.905037 -23.099942 -17.365609 27.786746 -10.117949 0.455569 1.188073 0.000000 0.000000 0.000000 -0.557281 -29.994390 -3.238116 12.139206 9.394546 -4.420685 2.082681 2.107882 -2.014818 1.031731 -0.278309 0.859285 0.000000 0.000000 0.000000 3.854413 1.388217 -1.433393 -11.270024 10.239891 6.282147 0.811743 8.764056 -0.787347 0.000000 0.000000 0.000000 2.788468 1.854498 -1.558759 0.744689 0.012582 -5.309483 -1.722426 -3.082536 -0.012808 -59.307837 2.582555 -46.133212 -179.545620 -73.144824 -178.883542 0.000000 0.000000 0.000000 2.817801 1.313502 -1.817744 3.468077 22.699239 -4.586293 -7.976041 -4.011338 2.260620 -42.638480 18.071233 48.678775 -178.594448 62.392535 177.605559 0.000000 0.000000 0.000000 
4.664833 70.284019 12.389618 0.000000 0.000000 0.000000 -1.900647 -39.465332 -3.507651 -43.192675 -1.147115 27.497507 61.011819 1.411772 -1.845080 -13.820446 -8.139228 -12.681848 -3.763945 -0.509151 1.831301 0.000000 0.000000 0.000000 -2.629830 -35.555912 -3.455825 -5.674613 -15.926008 -32.681745 50.124422 -0.039462 -6.045484 -25.562307 -19.000652 27.800070 -6.508744 0.371405 0.618441 0.000000 0.000000 0.000000 -2.058252 -33.288136 -3.283879 12.376363 9.004441 -3.642322 2.228258 1.985847 -1.851813 0.955157 -0.141381 0.968683 0.000000 0.000000 0.000000 3.866275 1.326609 -1.295753 -10.724807 10.949288 5.834205 1.798018 11.262698 -1.767433 0.000000 0.000000 0.000000 2.975169 1.750917 -1.382367 0.850910 0.101783 -5.095615 -1.375579 -3.139354 -0.099326 -60.263169 3.463764 -46.269925 -179.799921 -73.178216 -179.357557 0.000000 0.000000 0.000000 2.891338 1.184477 -1.674410 3.606080 22.391978 -5.037004 -7.370700 -3.404321 2.411813 -45.094050 18.348574 52.473516 -177.734950 62.976748 176.755515 0.000000 0.000000 0.000000 
4.722275 69.748825 10.274372 0.000000 0.000000 0.000000 -2.968778 -41.813991 -3.541983 -42.833797 -1.044968 28.920691 61.047862 1.329260 -2.187491 -12.011594 -7.231945 -13.568482 -4.006276 -0.511928 1.927893 0.000000 0.000000 0.000000 -3.866390 -38.059761 -3.424371 -7.123338 -15.075317 -34.110334 51.731812 -0.651289 -5.155741 -26.909207 -19.652654 28.772216 -4.530714 0.313441 0.277823 0.000000 0.000000 0.000000 -3.222258 -35.939445 -3.179649 12.471830 8.655482 -2.844068 2.348494 1.846542 -1.661383 0.956439 -0.066846 1.018343 0.000000 0.000000 0.000000 3.831880 1.259389 -1.133572 -10.063807 11.483898 5.201932 2.744013 13.132932 -2.648343 0.000000 0.000000 0.000000 3.181430 1.627276 -1.196022 0.970461 0.255477 -5.224954 -1.152563 -3.067988 -0.257142 -60.650823 4.114027 -46.461402 179.889930 -73.781445 -179.820521 0.000000 0.000000 0.000000 3.040569 1.063150 -1.498448 3.682595 21.740921 -5.414621 -6.704533 -2.850843 2.502797 -47.557337 18.365585 56.363592 -177.375068 63.018290 176.352588 0.000000 0.000000 0.000000 
4.583801 69.412163 8.140503 0.000000 0.000000 0.000000 -3.745179 -43.383357 -3.431993 -42.708336 -1.315126 30.003621 60.370498 1.195198 -2.354157 -9.632273 -6.652624 -14.273603 -3.918898 -0.417043 1.692725 0.000000 0.000000 0.000000 -4.928313 -39.885340 -3.290579 -8.397718 -14.123101 -35.334437 52.564197 -0.570811 -4.362722 -27.293282 -19.407255 30.538469 -3.805054 0.302003 0.108627 0.000000 0.000000 0.000000 -4.019809 -37.900634 -2.924914 12.417517 8.317715 -2.065014 2.435768 1.684435 -1.450136 0.973028 -0.024764 1.016699 0.000000 0.000000 0.000000 3.767161 1.180836 -0.945358 -9.218183 11.878718 4.424789 3.612563 14.519941 -3.494570 0.000000 0.000000 0.000000 3.382010 1.484399 -1.004751 1.104499 0.435176 -5.668561 -1.083380 -2.898609 -0.425550 -60.461668 4.541214 -46.699622 179.568392 -74.679834 179.799416 0.000000 0.000000 0.000000 3.249227 0.958136 -1.288232 3.719010 20.866732 -5.686124 -6.112332 -2.520538 2.440078 -49.872518 18.304369 60.028736 -177.481591 63.199385 176.372765 0.000000 0.000000 0.000000 
4.355412 69.361877 6.122326 0.000000 0.000000 0.000000 -4.235229 -44.364234 -3.157586 -42.715423 -1.788360 30.671726 59.114959 1.140103 -2.344652 -6.898049 -6.370289 -14.498139 -3.493315 -0.240661 1.012812 0.000000 0.000000 0.000000 -5.806084 -41.140821 -3.072480 -9.233687 -13.499503 -36.099899 52.576658 -0.269270 -3.671190 -27.481533 -18.712372 31.729869 -2.931737 0.332674 0.116610 0.000000 0.000000 0.000000 -4.452265 -39.350093 -2.499331 12.270542 7.999504 -1.354607 2.496865 1.522613 -1.240128 0.938288 0.013435 0.919836 0.000000 0.000000 0.000000 3.692050 1.082015 -0.747485 -8.207944 12.185764 3.566833 4.386314 15.542049 -4.353040 0.000000 0.000000 0.000000 3.545285 1.334161 -0.819373 1.240691 0.624544 -6.296656 -1.129006 -2.813420 -0.534532 -59.687186 4.767105 -46.979916 179.250091 -75.463447 179.504693 0.000000 0.000000 0.000000 3.474189 0.868866 -1.071535 3.728680 19.901016 -5.871868 -5.535663 -2.356284 2.343463 -51.903892 18.465174 63.243085 -177.914420 63.856811 176.679468 0.000000 0.000000 0.000000 
4.044031 69.601547 4.181004 0.000000 0.000000 0.000000 -4.471376 -44.853552 -2.702882 -42.891133 -2.338539 30.805178 57.607878 1.118889 -2.100618 -4.135564 -6.435307 -14.325470 -2.971593 -0.035653 0.020293 0.000000 0.000000 0.000000 -6.474278 -41.883994 -2.743202 -9.703181 -13.342102 -36.372926 52.044095 -0.158872 -3.011111 -27.960769 -17.994033 31.631876 -1.140824 0.398883 0.288954 0.000000 0.000000 0.000000 -4.630715 -40.411610 -1.931287 12.095080 7.728015 -0.766141 2.523937 1.372799 -1.061227 0.795066 0.070238 0.757558 0.000000 0.000000 0.000000 3.620134 0.981492 -0.573008 -7.057651 12.436044 2.728079 5.085083 16.302065 -5.223334 0.000000 0.000000 0.000000 3.654049 1.194705 -0.665964 1.370015 0.800869 -6.958600 -1.098597 -2.759924 -0.582513 -58.514879 4.804432 -47.318601 179.036183 -75.875192 179.368609 0.000000 0.000000 0.000000 3.677969 0.800682 -0.884766 3.746129 18.985177 -6.020187 -5.134076 -2.386261 2.265670 -53.575464 18.977348 65.976595 -178.487637 64.927853 177.122077 0.000000 0.000000 0.000000 
3.652583 70.024384 2.428841 0.000000 0.000000 0.000000 -4.642177 -45.003761 -2.108612 -43.229015 -2.697593 30.361687 56.279697 0.978796 -1.581541 -1.714556 -6.936938 -13.961397 -2.591156 0.113561 -0.961338 0.000000 0.000000 0.000000 -6.894057 -42.253388 -2.243988 -10.003214 -13.490384 -36.348279 51.324135 -0.285399 -2.386091 -28.593911 -17.408662 30.543694 0.466981 0.471347 0.524094 0.000000 0.000000 0.000000 -4.669292 -41.148912 -1.238023 11.949579 7.523947 -0.351982 2.533176 1.252123 -0.938162 0.610950 0.126409 0.565277 0.000000 0.000000 0.000000 3.574754 0.890561 -0.447667 -5.846293 12.644803 1.982357 5.775580 16.901363 -6.068209 0.000000 0.000000 0.000000 3.711293 1.081043 -0.569206 1.490235 0.956549 -7.529173 -1.017961 -2.756035 -0.646346 -57.259924 4.703246 -47.715661 178.920439 -75.867597 179.332340 0.000000 0.000000 0.000000 3.821129 0.753189 -0.753815 3.775179 18.211098 -6.191025 -4.844979 -2.443574 2.220848 -54.884617 19.790606 68.356383 -178.935110 66.076923 177.467466 0.000000 0.000000 0.000000 
3.253613 70.547806 0.873524 0.000000 0.000000 0.000000 -4.807489 -45.031010 -1.414011 -43.627977 -2.641910 29.296860 55.291843 0.588676 -0.856996 -0.126999 -7.945527 -13.700869 -2.669147 0.153764 -1.552220 0.000000 0.000000 0.000000 -7.100800 -42.448588 -1.576736 -10.383201 -13.692875 -36.221825 50.754606 -0.533252 -1.923475 -28.832390 -16.982803 29.318457 0.763646 0.514795 0.704389 0.000000 0.000000 0.000000 -4.664057 -41.784457 -0.466243 11.870538 7.404666 -0.125130 2.535647 1.168147 -0.869753 0.416656 0.272873 0.387284 0.000000 0.000000 0.000000 3.528546 0.819553 -0.383022 -4.674389 12.814734 1.385440 6.453931 17.402653 -6.812451 0.000000 0.000000 0.000000 3.718220 0.993120 -0.531601 1.585751 1.103591 -7.913650 -0.845197 -2.737850 -0.733120 -56.118887 4.551297 -48.095535 178.880428 -75.628649 179.352503 0.000000 0.000000 0.000000 3.898650 0.725812 -0.686446 3.812049 17.631300 -6.407851 -4.588105 -2.469983 2.193464 -55.810364 20.699424 70.469500 -179.191365 67.007803 177.670309 0.000000 0.000000 0.000000 
2.864561 71.054420 -0.485931 0.000000 0.000000 0.000000 -5.030182 -45.057696 -0.693044 -44.021826 -2.045466 27.780466 54.744834 -0.335816 0.057533 0.572136 -9.553061 -14.318814 -3.543224 0.100415 -1.339815 0.000000 0.000000 0.000000 -7.156389 -42.625517 -0.782839 -10.973048 -13.623776 -36.056886 50.350638 -0.701903 -1.685832 -28.667014 -16.689414 28.476257 0.052195 0.519540 0.774038 0.000000 0.000000 0.000000 -4.754403 -42.350783 0.232410 11.867128 7.365727 -0.067879 2.539136 1.110654 -0.837336 0.329199 0.330328 0.348219 0.000000 0.000000 0.000000 3.468993 0.769501 -0.364240 -3.600942 12.966335 0.970637 7.164373 17.825107 -7.391333 0.000000 0.000000 0.000000 3.696182 0.929408 -0.539705 1.650142 1.236068 -8.083977 -0.640974 -2.615743 -0.834501 -55.317190 4.456234 -48.406059 178.916095 -75.390767 179.421010 0.000000 0.000000 0.000000 3.925498 0.713883 -0.671272 3.847308 17.285317 -6.684524 -4.392395 -2.504582 2.215224 -56.398784 21.488016 72.303939 -179.218741 67.580391 177.680705 0.000000 0.000000 0.000000 
2.564619 71.473320 -1.532772 0.000000 0.000000 0.000000 -5.298575 -45.292654 -0.046979 -44.143328 -0.730235 26.046527 54.567464 -1.518913 0.948641 0.121545 -11.380306 -15.409216 -5.010303 -0.078291 -0.338778 0.000000 0.000000 0.000000 -7.078187 -42.854499 0.032154 -11.753005 -13.253273 -35.849880 50.010553 -0.764825 -1.682730 -28.573569 -16.460151 27.852680 -0.572344 0.510636 0.737874 0.000000 0.000000 0.000000 -4.908562 -42.947089 0.794799 11.916220 7.393788 -0.109185 2.553683 1.080449 -0.817843 0.333983 0.282880 0.399041 0.000000 0.000000 0.000000 3.395063 0.742887 -0.366462 -2.689611 13.091820 0.723042 7.918222 18.164063 -7.781214 0.000000 0.000000 0.000000 3.657776 0.885252 -0.566521 1.679543 1.378253 -8.089211 -0.525061 -2.389351 -0.923419 -54.873887 4.514447 -48.619971 179.013507 -75.241815 179.522329 0.000000 0.000000 0.000000 3.916822 0.716485 -0.673085 3.884002 17.126932 -6.990286 -4.204544 -2.534746 2.165932 -56.639938 22.032804 73.836674 -179.127189 67.852342 177.599494 0.000000 0.000000 0.000000 
